<svg width="236" height="204" viewBox="0 0 236 204" fill="none" xmlns="http://www.w3.org/2000/svg">
<path d="M117.992 203.093C182.839 203.093 235.407 157.629 235.407 101.547C235.407 45.464 182.839 0 117.992 0C53.1446 0 0.575562 45.464 0.575562 101.547C0.575562 157.629 53.1446 203.093 117.992 203.093Z" fill="#1A5C38"/>
<g opacity="0.95">
<path opacity="0.95" d="M51.9062 126.493C51.9062 107.461 58.5082 94.1382 71.712 86.5253C84.9158 78.9124 95.919 77.9608 104.722 83.6705V97.9446C98.1197 94.1382 91.5178 94.1382 84.9158 97.9446C76.1133 103.654 71.712 113.17 71.712 126.493H164.138C164.138 113.17 159.738 103.654 150.935 97.9446C144.333 94.1382 137.731 94.1382 131.129 97.9446V83.6705C139.932 77.9608 150.935 78.9124 164.138 86.5253C177.342 94.1382 183.945 107.461 183.945 126.493H51.9062Z" fill="white"/>
</g>
<path d="M72.4791 127.353C72.4791 119.902 76.7868 114.314 85.4021 110.588C96.1711 106.863 106.94 105 117.709 105C128.478 105 139.247 106.863 150.016 110.588C158.632 114.314 162.939 119.902 162.939 127.353H72.4791Z" fill="#1A5C38"/>
<g clip-path="url(#clip0_49_668)">
<path d="M117.598 101.934V44.4747" stroke="black" stroke-width="2.94945" stroke-linecap="round"/>
</g>
<g clip-path="url(#clip1_49_668)">
<path d="M115.556 55.1103C119.941 55.1157 123.304 50.1764 123.066 44.0782C122.829 37.9799 119.081 33.0319 114.696 33.0266C110.311 33.0212 106.948 37.9605 107.186 44.0588C107.423 50.157 111.171 55.105 115.556 55.1103Z" fill="#F5C842"/>
</g>
<g clip-path="url(#clip2_49_668)">
<path d="M103.519 67.3498C106.275 67.3242 108.02 63.6984 107.417 59.2516C106.814 54.8048 104.09 51.2208 101.334 51.2464C98.5779 51.2721 96.8326 54.8978 97.4359 59.3446C98.0392 63.7914 100.763 67.3755 103.519 67.3498Z" fill="#F5C842"/>
</g>
<g clip-path="url(#clip3_49_668)">
<path d="M133.201 61.4848C135.958 61.5105 138.681 57.9264 139.284 53.4796C139.888 49.0327 138.142 45.4071 135.386 45.3814C132.63 45.3557 129.906 48.9397 129.303 53.3866C128.7 57.8334 130.445 61.4591 133.201 61.4848Z" fill="#F5C842"/>
</g>
<g clip-path="url(#clip4_49_668)">
<path d="M98.8882 77.2882C101.41 77.2674 103.136 74.1297 102.744 70.2801C102.351 66.4305 99.9883 63.3267 97.4663 63.3475C94.9444 63.3683 93.2183 66.5059 93.6109 70.3555C94.0035 74.2052 96.3663 77.309 98.8882 77.2882Z" fill="#EDB82A"/>
</g>
<g clip-path="url(#clip5_49_668)">
<path d="M135.423 73.5056C137.945 73.5264 140.307 70.4226 140.7 66.5729C141.093 62.7233 139.367 59.5857 136.845 59.5648C134.323 59.544 131.96 62.6479 131.567 66.4975C131.175 70.3471 132.901 73.4848 135.423 73.5056Z" fill="#EDB82A"/>
</g>
<g opacity="0.9">
<path opacity="0.9" d="M118.5 80.2682C131.485 72.7813 140.142 64.3586 144.471 55C137.978 60.6152 129.321 69.0379 118.5 80.2682Z" fill="#5CBF7A"/>
</g>
<g opacity="0.9">
<path opacity="0.9" d="M117.471 86.2682C104.485 78.7813 95.8284 70.3586 91.5 61C97.9927 66.6152 106.65 75.0379 117.471 86.2682Z" fill="#5CBF7A"/>
</g>
<g opacity="0.6" clip-path="url(#clip6_49_668)">
<path opacity="0.6" d="M117.606 144.775C120.088 144.775 122.101 143.034 122.101 140.887C122.101 138.74 120.088 137 117.606 137C115.124 137 113.111 138.74 113.111 140.887C113.111 143.034 115.124 144.775 117.606 144.775Z" fill="white"/>
</g>
<g opacity="0.4" clip-path="url(#clip7_49_668)">
<path opacity="0.4" d="M104.893 150.859C106.444 150.859 107.702 149.771 107.702 148.43C107.702 147.088 106.444 146 104.893 146C103.341 146 102.083 147.088 102.083 148.43C102.083 149.771 103.341 150.859 104.893 150.859Z" fill="white"/>
</g>
<g opacity="0.4" clip-path="url(#clip8_49_668)">
<path opacity="0.4" d="M126.893 150.859C128.444 150.859 129.702 149.771 129.702 148.43C129.702 147.088 128.444 146 126.893 146C125.341 146 124.083 147.088 124.083 148.43C124.083 149.771 125.341 150.859 126.893 150.859Z" fill="white"/>
</g>
<defs>
<clipPath id="clip0_49_668">
<rect width="4" height="61" fill="white" transform="translate(116 43)"/>
</clipPath>
<clipPath id="clip1_49_668">
<rect width="17" height="23" fill="white" transform="translate(108.46 32.05) rotate(6.99998)"/>
</clipPath>
<clipPath id="clip2_49_668">
<rect width="13" height="21" fill="white" transform="translate(101.26 47.21) rotate(26)"/>
</clipPath>
<clipPath id="clip3_49_668">
<rect width="13" height="21" fill="white" transform="translate(124.05 46.91) rotate(-26)"/>
</clipPath>
<clipPath id="clip4_49_668">
<rect width="11" height="17" fill="white" transform="translate(95.73 60.76) rotate(17)"/>
</clipPath>
<clipPath id="clip5_49_668">
<rect width="11" height="17" fill="white" transform="translate(128.76 59.98) rotate(-17)"/>
</clipPath>
<clipPath id="clip6_49_668">
<rect width="10" height="8" fill="white" transform="translate(113 137)"/>
</clipPath>
<clipPath id="clip7_49_668">
<rect width="6" height="5" fill="white" transform="translate(102 146)"/>
</clipPath>
<clipPath id="clip8_49_668">
<rect width="6" height="5" fill="white" transform="translate(124 146)"/>
</clipPath>
</defs>
</svg>
